<?xml version="1.0" encoding="UTF-8" standalone="no"?>
<!-- Created with Inkscape (http://www.inkscape.org/) -->

<svg
   xmlns:dc="http://purl.org/dc/elements/1.1/"
   xmlns:cc="http://creativecommons.org/ns#"
   xmlns:rdf="http://www.w3.org/1999/02/22-rdf-syntax-ns#"
   xmlns:svg="http://www.w3.org/2000/svg"
   xmlns="http://www.w3.org/2000/svg"
   xmlns:sodipodi="http://sodipodi.sourceforge.net/DTD/sodipodi-0.dtd"
   xmlns:inkscape="http://www.inkscape.org/namespaces/inkscape"
   width="180"
   height="60"
   viewBox="0 0 47.624999 15.875001"
   version="1.1"
   id="svg8"
   sodipodi:docname="logo.svg"
   inkscape:export-filename="/home/diego/learning/javascript/semanaOmniStack/frontend/src/assets/logo.svg.png"
   inkscape:export-xdpi="2000"
   inkscape:export-ydpi="2000"
   inkscape:version="0.92.4 (unknown)">
  <defs
     id="defs2">
    <clipPath
       clipPathUnits="userSpaceOnUse"
       id="clipPath899">
      <rect
         style="opacity:0.997;fill:#ff0000;fill-opacity:0;stroke:#ff0000;stroke-width:2.03782082;stroke-miterlimit:4;stroke-dasharray:none"
         id="rect901"
         width="140.47853"
         height="147.79509"
         x="155.84335"
         y="171.15462" />
    </clipPath>
  </defs>
  <sodipodi:namedview
     id="base"
     pagecolor="#ffffff"
     bordercolor="#666666"
     borderopacity="1.0"
     inkscape:pageopacity="0.0"
     inkscape:pageshadow="2"
     inkscape:zoom="2.8929687"
     inkscape:cx="85.006558"
     inkscape:cy="45.694117"
     inkscape:document-units="mm"
     inkscape:current-layer="layer1"
     showgrid="false"
     units="px"
     inkscape:window-width="1366"
     inkscape:window-height="700"
     inkscape:window-x="0"
     inkscape:window-y="0"
     inkscape:window-maximized="1" />
  <metadata
     id="metadata5">
    <rdf:RDF>
      <cc:Work
         rdf:about="">
        <dc:format>image/svg+xml</dc:format>
        <dc:type
           rdf:resource="http://purl.org/dc/dcmitype/StillImage" />
        <dc:title></dc:title>
      </cc:Work>
    </rdf:RDF>
  </metadata>
  <g
     inkscape:label="Camada 1"
     inkscape:groupmode="layer"
     id="layer1"
     transform="translate(0,-281.12497)">
    <g
       id="g840"
       style="stroke:#ff0000"
       transform="matrix(0.82946827,0,0,0.82946827,2.6010784,50.672461)">
      <text
         id="text817"
         y="294.47473"
         x="0.3190493"
         style="font-style:normal;font-variant:normal;font-weight:normal;font-stretch:normal;font-size:15.44339848px;line-height:0;font-family:Luxia;-inkscape-font-specification:Luxia;letter-spacing:0px;word-spacing:0px;fill:#ff0000;fill-opacity:1;stroke:#ff0000;stroke-width:0.38608494"
         xml:space="preserve"><tspan
           style="font-style:normal;font-variant:normal;font-weight:bold;font-stretch:normal;font-family:'URW Bookman L';-inkscape-font-specification:'URW Bookman L Bold';fill:#ff0000;stroke:#ff0000;stroke-width:0.38608494"
           y="294.47473"
           x="0.3190493"
           id="tspan815"
           sodipodi:role="line">tindev</tspan></text>
    </g>
    <path
       inkscape:connector-curvature="0"
       id="path867"
       d="m 91.281614,346.83734 c 0,-9.38072 0.0466,-10.57289 0.41851,-10.71562 0.54723,-0.21 263.199066,-0.21 263.746306,0 0.37195,0.14273 0.41851,1.3349 0.41851,10.71562 v 10.55503 H 223.57328 91.281614 Z m 35.647086,3.25143 c -0.0879,-0.0879 -0.31612,-0.0973 -0.50712,-0.0209 -0.21107,0.0845 -0.14837,0.14716 0.15985,0.15985 0.27892,0.0115 0.43519,-0.051 0.34727,-0.13896 z m 1.43989,-0.54262 c 0.26612,-0.24083 0.48385,-0.77387 0.48385,-1.18452 0,-0.82683 -0.56624,-1.29563 -2.18484,-1.80888 -1.24922,-0.39612 -1.63946,-1.04195 -1.09731,-1.81599 0.35537,-0.50735 0.35381,-0.55007 -0.0149,-0.4086 -0.61623,0.23647 -0.81902,1.38865 -0.33041,1.87726 0.22546,0.22546 1.04457,0.66224 1.82024,0.97063 1.15431,0.45892 1.42506,0.68798 1.49156,1.26188 0.0568,0.48981 -0.10057,0.82855 -0.52189,1.12365 -0.33173,0.23235 -0.49673,0.42246 -0.36667,0.42246 0.13006,0 0.45421,-0.19705 0.72033,-0.43789 z m 2.77382,-0.046 c -0.59394,-0.65629 -0.61916,-3.43194 -0.0332,-3.65678 0.35093,-0.13467 0.35389,-0.19503 0.0223,-0.45472 -0.21029,-0.16469 -0.4381,-0.53756 -0.50626,-0.8286 -0.0682,-0.29104 -0.13773,0.66741 -0.15461,2.12989 -0.0202,1.75313 0.0775,2.76724 0.28681,2.97657 0.51406,0.51406 0.86392,0.36288 0.38497,-0.16636 z m 2.74742,-0.0952 c -0.33708,-0.36181 -0.53947,-0.93867 -0.53947,-1.53761 0,-0.59894 0.20239,-1.1758 0.53947,-1.53761 0.29671,-0.31848 0.42253,-0.57906 0.27959,-0.57906 -0.48406,0 -1.08365,1.17116 -1.08365,2.11667 0,0.94551 0.59959,2.11667 1.08365,2.11667 0.14294,0 0.0171,-0.26058 -0.27959,-0.57906 z m 2.75282,-0.009 c 0.7543,-1.0769 0.27494,-3.64528 -0.68036,-3.64528 -0.14767,0 -0.0816,0.18692 0.1469,0.41538 0.53623,0.53624 0.78091,1.53077 0.57674,2.34425 -0.0888,0.35362 -0.34829,0.82987 -0.57674,1.05833 -0.22846,0.22846 -0.29457,0.41538 -0.1469,0.41538 0.14766,0 0.45382,-0.26462 0.68036,-0.58804 z m 2.70498,0.10766 c -0.60097,-0.66407 -0.82086,-1.98489 -0.4468,-2.68382 0.17161,-0.32067 0.6896,-0.74727 1.15109,-0.94801 0.46148,-0.20075 0.68432,-0.36965 0.49519,-0.37535 -0.79975,-0.0241 -1.86665,0.7998 -2.03637,1.57255 -0.23134,1.05327 0.0634,2.31896 0.61498,2.64081 0.65286,0.38095 0.7074,0.33028 0.22191,-0.20618 z m 4.31148,-1.46236 c 0.23675,-0.23281 0.46218,-0.13217 0.94045,0.41987 0.34598,0.39935 0.74548,0.93414 0.88779,1.18842 0.1423,0.25429 0.32661,0.39446 0.40958,0.3115 0.083,-0.083 -0.20246,-0.61775 -0.63426,-1.18842 -0.96971,-1.28158 -0.98125,-1.55616 -0.0997,-2.37314 0.38506,-0.35685 0.5844,-0.64882 0.443,-0.64882 -0.14141,0 -0.53673,0.29766 -0.87851,0.66146 -1.08929,1.1595 -1.43416,0.85937 -1.67217,-1.45521 -0.0524,-0.50932 -0.10209,0.44318 -0.11048,2.11667 -0.0102,2.02974 0.0543,2.74827 0.19383,2.1583 0.11501,-0.48643 0.34923,-1.02221 0.52049,-1.19063 z m 91.81719,-47.26662 c -1.86342,-0.29765 -3.06422,-0.75117 -2.75184,-1.03933 0.13284,-0.12253 0.67313,-0.36056 1.20065,-0.52894 1.18681,-0.37883 3.10628,-1.73069 4.03737,-2.84347 0.38507,-0.46021 1.02567,-1.53177 1.42357,-2.38125 1.72934,-3.692 0.3566,-8.52275 -3.15423,-11.09994 l -1.28146,-0.94068 -0.011,-1.7634 c -0.0109,-1.73767 -0.69307,-4.29132 -1.19067,-4.45684 -0.14731,-0.049 -0.259,0.83015 -0.26657,2.0983 -0.0138,2.30194 -0.46863,4.16701 -1.01632,4.16701 -0.48241,0 -1.60953,-1.29362 -2.26344,-2.59778 -0.78161,-1.55888 -0.94419,-3.33419 -0.55614,-6.0731 0.28061,-1.98055 0.26747,-2.5644 -0.0922,-4.10091 -0.47222,-2.01702 -1.12916,-3.43611 -2.1551,-4.65538 -0.87127,-1.03545 -1.21177,-1.0553 -1.01251,-0.059 0.23492,1.1746 -0.32152,2.46766 -1.88018,4.3692 -2.52569,3.08131 -4.29875,6.54318 -5.27929,10.30772 -0.65633,2.51981 -0.97045,6.43145 -0.70329,8.75762 0.13341,1.16154 0.17863,2.21533 0.10049,2.34176 -0.20974,0.33937 -1.60174,-0.007 -2.44646,-0.60817 -1.13231,-0.80627 -1.43133,-1.83022 -1.26167,-4.32033 l 0.14791,-2.17099 -0.61621,0.71461 c -1.25459,1.45491 -1.82318,3.52387 -1.83955,6.69373 -0.0146,2.8261 0.0113,2.95891 0.89244,4.58417 1.09469,2.01904 2.41986,3.20605 4.67703,4.18938 0.93035,0.4053 1.69154,0.8139 1.69154,0.908 0,0.0941 -0.44649,0.24488 -0.99219,0.33508 -2.93109,0.48449 -7.52024,-0.17099 -11.17865,-1.59667 -7.04871,-2.74687 -12.59651,-9.24197 -14.45688,-16.92541 -0.67505,-2.78799 -0.61254,-8.13516 0.12482,-10.67684 0.31662,-1.09141 0.87973,-3.11547 1.25134,-4.49792 1.99247,-7.41224 -0.31333,-15.81637 -5.80128,-21.14435 -0.66186,-0.64257 -1.14199,-1.26765 -1.06695,-1.38906 0.23608,-0.38199 2.32309,-0.24089 4.43822,0.30007 4.15688,1.06315 8.30517,3.91027 10.63851,7.30159 1.21765,1.76975 1.34338,1.56156 0.92672,-1.53447 -0.40018,-2.97356 -0.35061,-9.57522 0.0971,-12.93861 1.91105,-14.355 10.18873,-27.56742 22.2369,-35.4934 2.58747,-1.70219 5.4011,-3.21074 5.60608,-3.00576 0.0707,0.0707 -0.72489,1.17984 -1.76802,2.46472 -3.0906,3.80685 -4.9765,7.42864 -6.10124,11.71717 -2.77489,10.58042 0.35009,21.68123 8.28453,29.42902 1.84475,1.80135 5.49194,4.44933 6.12828,4.44933 0.18223,0 0.53791,-0.74414 0.79041,-1.65365 1.45587,-5.24422 5.32545,-9.83201 10.31839,-12.23351 1.98981,-0.95706 4.71826,-1.71281 6.20732,-1.71935 1.08029,-0.005 1.07985,-7.9e-4 -0.45388,3.98537 -0.59223,1.53926 -1.39958,4.33722 -1.79412,6.21771 -0.61936,2.9521 -0.71843,4.05142 -0.72541,8.04926 -0.0131,7.52249 1.01563,11.9483 4.48959,19.31459 2.16104,4.58233 2.76708,6.90253 2.83351,10.84791 0.0553,3.28469 -0.34677,5.07434 -1.94008,8.63526 -1.35905,3.03736 -4.05905,6.35599 -6.87223,8.44679 -1.59231,1.18343 -5.00566,2.77768 -7.10947,3.32057 -2.32812,0.60079 -6.38751,0.84069 -8.50417,0.50259 z m -0.97142,-59.66429 c -0.6766,-0.47391 -3.66113,-4.07 -4.62821,-5.57659 -3.39274,-5.28544 -4.98241,-12.25634 -4.18929,-18.37058 0.81769,-6.30364 3.15235,-11.32734 7.4623,-16.05728 2.47942,-2.72103 3.22826,-3.76672 4.49954,-6.28319 3.00863,-5.95551 3.13072,-13.1613 0.33088,-19.52928 -0.5127,-1.16609 -0.87235,-2.18 -0.79922,-2.25313 0.18137,-0.18136 1.7493,1.22187 3.23714,2.89709 6.59007,7.42007 8.683,18.19742 5.4053,27.83415 -0.94876,2.78942 -2.14563,5.01297 -4.35318,8.08734 -3.21381,4.47573 -5.49238,9.87152 -6.36572,15.07437 -0.52251,3.11281 -0.5313,8.95114 -0.0177,11.79348 0.55407,3.06661 0.5306,3.16278 -0.5818,2.38362 z m -34.73309,-8.7494 c -0.006,-0.15419 0.23972,-1.27188 0.54618,-2.48375 0.44794,-1.77135 0.53471,-2.75396 0.44256,-5.01131 -0.13543,-3.31762 -0.74507,-5.33809 -2.44387,-8.09958 -2.36236,-3.84015 -2.82457,-5.25487 -2.82858,-8.65784 -0.004,-3.70866 1.42149,-7.10965 4.01979,-9.58801 1.29651,-1.23666 2.10499,-1.76499 2.10499,-1.37558 0,0.0495 -0.35597,0.80239 -0.79105,1.67306 -1.89493,3.79209 -1.34011,8.4242 1.414,11.80531 2.54958,3.13 3.45916,5.81745 3.28809,9.71493 -0.12338,2.81077 -0.90472,5.13629 -2.82916,8.42049 -1.07694,1.83787 -2.90382,4.08934 -2.92295,3.60228 z m -68.40581,-81.07902 c 0.0899,-0.14552 0.21603,-0.26458 0.2802,-0.26458 0.0642,0 0.11668,0.11906 0.11668,0.26458 0,0.14552 -0.12609,0.26459 -0.2802,0.26459 -0.15411,0 -0.20662,-0.11907 -0.11668,-0.26459 z"
       style="fill:#ff0000;stroke-width:0.26458335"
       clip-path="url(#clipPath899)"
       transform="matrix(0.04795561,0,0,0.04795561,0.20423744,273.08205)" />
  </g>
</svg>
